<?xml version="1.0" encoding="utf-8"?>
<!-- Generator: Adobe Illustrator 27.9.0, SVG Export Plug-In . SVG Version: 6.00 Build 0)  -->
<svg version="1.1" id="Capa_1" xmlns="http://www.w3.org/2000/svg" xmlns:xlink="http://www.w3.org/1999/xlink" x="0px" y="0px"
	 viewBox="0 0 196.3 134.1" style="enable-background:new 0 0 196.3 134.1;" xml:space="preserve">
<style type="text/css">
	.st0{fill:none;}
</style>
<g>
	<path d="M53.3,69.8H9.1c-5,0-9.1,4.1-9.1,9.1v46c0,5,4.1,9.1,9.1,9.1h44.1c5,0,9.1-4.1,9.1-9.1v-46C62.4,73.9,58.3,69.8,53.3,69.8z
		 M44.2,73.8c3.5,0,6.4,2.9,6.4,6.4v34.4c0,3.5-2.9,6.4-6.4,6.4H17.6c-3.5,0-6.4-2.9-6.4-6.4V80.2c0-3.5,2.9-6.4,6.4-6.4H44.2z
		 M1.4,78.9c0-4.3,3.5-7.7,7.7-7.7h39l-4.1,1.2H17.6c-4.3,0-7.8,3.5-7.8,7.8v34.1l-8.3,8.9C1.4,123.2,1.4,78.9,1.4,78.9z"/>
	<path d="M120.2,69.8H76.1c-5,0-9.1,4.1-9.1,9.1v46c0,5,4.1,9.1,9.1,9.1h44.1c5,0,9.1-4.1,9.1-9.1v-46
		C129.4,73.9,125.2,69.8,120.2,69.8z M111.1,73.8c3.5,0,6.4,2.9,6.4,6.4v34.4c0,3.5-2.9,6.4-6.4,6.4H84.5c-3.5,0-6.4-2.9-6.4-6.4
		V80.2c0-3.5,2.9-6.4,6.4-6.4H111.1z M68.4,78.9c0-4.3,3.5-7.7,7.7-7.7h39l-4.1,1.2H84.5c-4.3,0-7.8,3.5-7.8,7.8v34.1l-8.3,8.9
		L68.4,78.9L68.4,78.9z"/>
	<path d="M120.2,0H76.1c-5,0-9.1,4.1-9.1,9.1v46c0,5,4.1,9.1,9.1,9.1h44.1c5,0,9.1-4.1,9.1-9.1v-46C129.4,4.1,125.2,0,120.2,0z
		 M111.1,4c3.5,0,6.4,2.9,6.4,6.4v34.4c0,3.5-2.9,6.4-6.4,6.4H84.5c-3.5,0-6.4-2.9-6.4-6.4V10.4C78.1,6.9,81,4,84.5,4H111.1z
		 M68.4,9.1c0-4.3,3.5-7.7,7.7-7.7h39L111,2.6H84.5c-4.3,0-7.8,3.5-7.8,7.8v34.1l-8.3,8.9L68.4,9.1L68.4,9.1z"/>
	<path d="M187.2,69.8H143c-5,0-9.1,4.1-9.1,9.1v46c0,5,4.1,9.1,9.1,9.1h44.1c5,0,9.1-4.1,9.1-9.1v-46
		C196.3,73.9,192.2,69.8,187.2,69.8z M178.1,73.8c3.5,0,6.4,2.9,6.4,6.4v34.4c0,3.5-2.9,6.4-6.4,6.4h-26.6c-3.5,0-6.4-2.9-6.4-6.4
		V80.2c0-3.5,2.9-6.4,6.4-6.4H178.1z M135.3,78.9c0-4.3,3.5-7.7,7.7-7.7h39l-4.1,1.2h-26.5c-4.3,0-7.8,3.5-7.8,7.8v34.1l-8.3,8.9
		L135.3,78.9L135.3,78.9z"/>
	<polygon class="st0" points="86.4,26.6 90.3,26.6 90.3,39.6 91.9,39.6 91.9,26.6 95.9,26.6 91.1,18.4 	"/>
	<polygon class="st0" points="25.1,94.2 16.9,99 25.1,103.7 25.1,99.8 38.1,99.8 38.1,98.2 25.1,98.2 	"/>
	<polygon class="st0" points="91.9,88.4 90.3,88.4 90.3,101.4 86.4,101.4 91.1,109.6 95.9,101.4 91.9,101.4 	"/>
	<polygon class="st0" points="162.5,98.2 149.5,98.2 149.5,99.8 162.5,99.8 162.5,103.7 170.7,99 162.5,94.2 	"/>
	<path d="M162.5,103.7v-4h-13v-1.6h13v-4l8.2,4.8L162.5,103.7z"/>
	<path d="M91.1,109.6l-4.8-8.2h4v-13h1.6v13h4L91.1,109.6z"/>
	<path d="M38.1,99.8h-13v4L16.9,99l8.2-4.8v4h13V99.8z"/>
	<path d="M91.9,26.6v13h-1.6v-13h-4l4.8-8.2l4.8,8.2C95.9,26.6,91.9,26.6,91.9,26.6z"/>
</g>
</svg>
